<svg xmlns="http://www.w3.org/2000/svg" viewBox="0 0 96 96"><defs><radialGradient id="au-a"><stop offset="0" stop-color="#cecece"/><stop offset=".45" stop-color="#bbac77"/><stop offset="1" stop-color="#8b6d4d"/></radialGradient>
<linearGradient id="au-b" x1="0" y1="0" x2="1" y2="0"><stop offset="0" stop-color="#4f362f"/><stop offset=".5" stop-color="#885e52"/><stop offset="1" stop-color="#4f362f"/></linearGradient></defs>
<path d="M48 3 L52 22 L44 22 Z" transform="rotate(0 48 48)" fill="#957f4f"/><path d="M48 11 L51 23 L45 23 Z" transform="rotate(30 48 48)" fill="#7c6149"/><path d="M48 3 L52 22 L44 22 Z" transform="rotate(60 48 48)" fill="#957f4f"/><path d="M48 11 L51 23 L45 23 Z" transform="rotate(90 48 48)" fill="#7c6149"/><path d="M48 3 L52 22 L44 22 Z" transform="rotate(120 48 48)" fill="#957f4f"/><path d="M48 11 L51 23 L45 23 Z" transform="rotate(150 48 48)" fill="#7c6149"/><path d="M48 3 L52 22 L44 22 Z" transform="rotate(180 48 48)" fill="#957f4f"/><path d="M48 11 L51 23 L45 23 Z" transform="rotate(210 48 48)" fill="#7c6149"/><path d="M48 3 L52 22 L44 22 Z" transform="rotate(240 48 48)" fill="#957f4f"/><path d="M48 11 L51 23 L45 23 Z" transform="rotate(270 48 48)" fill="#7c6149"/><path d="M48 3 L52 22 L44 22 Z" transform="rotate(300 48 48)" fill="#957f4f"/><path d="M48 11 L51 23 L45 23 Z" transform="rotate(330 48 48)" fill="#7c6149"/><circle cx="48" cy="48" r="27" fill="var(--logo-cut, #14181d)"/><circle cx="48" cy="48" r="24" fill="none" stroke="#957f4f" stroke-width="2"/>
<ellipse cx="48" cy="48" rx="23" ry="8" fill="none" stroke="url(#au-b)" stroke-width="3" transform="rotate(-20 48 48)"/>
<circle cx="48" cy="48" r="13" fill="url(#au-a)"/>
<path d="M26.400 55.870 A23 8 -20 0 0 69.600 40.130" fill="none" stroke="#ad795d" stroke-width="3" stroke-linecap="round"/></svg>
